<svg width="30" height="30" viewBox="0 0 30 30" fill="none" xmlns="http://www.w3.org/2000/svg">
<path d="M15 1.66699C12.3629 1.66699 9.78505 2.44898 7.59239 3.91406C5.39974 5.37915 3.69077 7.46153 2.6816 9.89788C1.67243 12.3342 1.40839 15.0151 1.92286 17.6015C2.43733 20.1879 3.70721 22.5637 5.57191 24.4284C7.43661 26.2931 9.81238 27.563 12.3988 28.0775C14.9852 28.5919 17.6661 28.3279 20.1024 27.3187C22.5388 26.3096 24.6212 24.6006 26.0863 22.4079C27.5513 20.2153 28.3333 17.6374 28.3333 15.0003C28.3333 11.4641 26.9286 8.07272 24.4281 5.57224C21.9276 3.07175 18.5362 1.66699 15 1.66699ZM20.1667 19.317C20.1061 19.4086 20.0281 19.4873 19.937 19.5487C19.8459 19.61 19.7436 19.6528 19.636 19.6744C19.5284 19.6961 19.4175 19.6963 19.3098 19.675C19.2021 19.6537 19.0996 19.6113 19.0083 19.5503L14.0917 16.217V8.95866C14.0917 8.73765 14.1795 8.52568 14.3357 8.3694C14.492 8.21312 14.704 8.12533 14.925 8.12533C15.146 8.12533 15.358 8.21312 15.5143 8.3694C15.6705 8.52568 15.7583 8.73765 15.7583 8.95866V15.3337L19.925 18.1587C20.0173 18.2185 20.0968 18.2961 20.1589 18.3869C20.2211 18.4776 20.2646 18.5798 20.2871 18.6875C20.3096 18.7952 20.3105 18.9062 20.2898 19.0143C20.2692 19.1223 20.2273 19.2252 20.1667 19.317ZM19.875 6.85866C18.7025 6.15192 17.3909 5.7072 16.0304 5.555C14.6698 5.40281 13.2924 5.54674 11.9927 5.97693C10.693 6.40712 9.5017 7.11338 8.50061 8.04726C7.49951 8.98113 6.71229 10.1205 6.19295 11.3873C5.67361 12.654 5.43445 14.0181 5.49186 15.3859C5.54928 16.7538 5.90192 18.093 6.52559 19.3118C7.14926 20.5305 8.0292 21.5999 9.10504 22.4466C10.1809 23.2933 11.4271 23.8972 12.7583 24.217L12.5 25.5253C10.9733 25.17 9.54187 24.4875 8.30458 23.5251C7.06728 22.5627 6.05357 21.3433 5.33344 19.951C4.6133 18.5587 4.20389 17.0267 4.13347 15.4607C4.06305 13.8948 4.33329 12.3322 4.92555 10.8809C5.5178 9.42956 6.41796 8.12404 7.56388 7.05446C8.70979 5.98488 10.0742 5.17672 11.5628 4.68577C13.0515 4.19481 14.6289 4.03276 16.1863 4.2108C17.7437 4.38884 19.2439 4.90273 20.5833 5.71699L19.875 6.85866Z" fill="white"/>
</svg>
