<svg width="18" height="18" viewBox="0 0 18 18" fill="none" xmlns="http://www.w3.org/2000/svg">
<path d="M14.4596 3.375H14.7105C14.8438 3.37479 14.9729 3.42196 15.0747 3.50809C15.1765 3.59422 15.2444 3.71371 15.2662 3.84525L15.6409 6.09525C15.6543 6.1758 15.65 6.25829 15.6282 6.33701C15.6065 6.41572 15.568 6.48877 15.5152 6.55107C15.4624 6.61338 15.3967 6.66344 15.3226 6.6978C15.2486 6.73215 15.1679 6.74996 15.0862 6.75H14.2189L13.5326 16.353C13.5224 16.4949 13.4588 16.6276 13.3546 16.7244C13.2505 16.8213 13.1135 16.8751 12.9712 16.875H5.02424C4.88182 16.8754 4.74455 16.8217 4.64016 16.7248C4.53576 16.6279 4.472 16.4951 4.46174 16.353L3.77774 6.75H2.91374C2.83209 6.74996 2.75143 6.73215 2.67735 6.6978C2.60328 6.66344 2.53757 6.61338 2.48479 6.55107C2.43202 6.48877 2.39344 6.41572 2.37173 6.33701C2.35003 6.25829 2.34573 6.1758 2.35912 6.09525L2.73374 3.84525C2.75561 3.71371 2.82349 3.59422 2.92528 3.50809C3.02707 3.42196 3.15615 3.37479 3.28949 3.375H3.53587L3.41774 1.728C3.41218 1.65089 3.42256 1.57346 3.44826 1.50055C3.47395 1.42764 3.5144 1.3608 3.56708 1.30422C3.61976 1.24763 3.68353 1.20251 3.75443 1.17168C3.82532 1.14084 3.90181 1.12495 3.97912 1.125H14.0164C14.0937 1.12495 14.1702 1.14084 14.2411 1.17168C14.312 1.20251 14.3757 1.24763 14.4284 1.30422C14.4811 1.3608 14.5215 1.42764 14.5472 1.50055C14.5729 1.57346 14.5833 1.65089 14.5777 1.728L14.4596 3.375ZM13.3324 3.375L13.4122 2.25H4.58324L4.66312 3.375H13.3324ZM3.69674 5.625H14.4225L14.2346 4.5H3.76537L3.57749 5.625H3.69674ZM4.90499 6.75L5.54737 15.75H12.4481L13.0905 6.75H4.90499Z" fill="#009AAD"/>
</svg>
