<svg width="171" height="171" viewBox="0 0 171 171" fill="none" xmlns="http://www.w3.org/2000/svg">
<circle cx="85.5" cy="85.5" r="85.5" fill="#92E7F2"/>
<path d="M85.7908 43.6226C80.3266 43.6226 74.9851 45.2429 70.4418 48.2786C65.8985 51.3144 62.3574 55.6292 60.2663 60.6775C58.1752 65.7258 57.6281 71.2808 58.6941 76.64C59.7602 81.9992 62.3914 86.922 66.2552 90.7857C70.119 94.6495 75.0417 97.2808 80.401 98.3468C85.7602 99.4128 91.3152 98.8657 96.3634 96.7746C101.412 94.6836 105.727 91.1425 108.762 86.5992C111.798 82.0558 113.418 76.7143 113.418 71.2501C113.418 63.9228 110.508 56.8957 105.326 51.7145C100.145 46.5333 93.1181 43.6226 85.7908 43.6226Z" fill="white"/>
<path d="M85.5001 10.4697C70.2003 10.4697 55.244 15.0066 42.5227 23.5068C29.8014 32.0069 19.8864 44.0884 14.0314 58.2236C8.1764 72.3587 6.64447 87.9127 9.62931 102.918C12.6142 117.924 19.9817 131.708 30.8003 142.527C41.6189 153.345 55.4026 160.713 70.4084 163.698C85.4143 166.682 100.968 165.151 115.103 159.296C129.239 153.441 141.32 143.526 149.82 130.804C158.32 118.083 162.857 103.127 162.857 87.8269C162.834 67.3177 154.676 47.6552 140.174 33.153C125.672 18.6507 106.009 10.4931 85.5001 10.4697V10.4697ZM129.66 137.148C129.55 129.9 126.597 122.986 121.437 117.894C116.278 112.803 109.325 109.943 102.077 109.929H68.9235C61.6751 109.943 54.7221 112.803 49.5626 117.894C44.4032 122.986 41.4503 129.9 41.3402 137.148C31.32 128.2 24.2538 116.421 21.0772 103.368C17.9006 90.3159 18.7635 76.6065 23.5516 64.0553C28.3396 51.5042 36.8271 40.7035 47.89 33.0832C58.9529 25.463 72.0694 21.3828 85.5028 21.3828C98.9362 21.3828 112.053 25.463 123.116 33.0832C134.179 40.7035 142.666 51.5042 147.454 64.0553C152.242 76.6065 153.105 90.3159 149.928 103.368C146.752 116.421 139.686 128.2 129.665 137.148H129.66Z" fill="white"/>
</svg>
